<svg width="227" height="46" viewBox="0 0 227 46" fill="none" xmlns="http://www.w3.org/2000/svg">
<path d="M0 23C0 10.2975 10.3021 0 23.0104 0C35.7187 0 46.0209 10.2975 46.0209 23C46.0209 35.7025 35.7187 46 23.0104 46C10.3021 46 0 35.7025 0 23Z" fill="#333333"/>
<path fill-rule="evenodd" clip-rule="evenodd" d="M24.3911 23C24.3911 34.9404 34.0751 44.62 46.0209 44.62C57.9667 44.62 67.6507 34.9404 67.6507 23C67.6507 11.0596 57.9667 1.38 46.0209 1.38C34.0751 1.38 24.3911 11.0596 24.3911 23ZM46.0209 0C33.3126 0 23.0104 10.2975 23.0104 23C23.0104 35.7025 33.3126 46 46.0209 46C58.7292 46 69.0313 35.7025 69.0313 23C69.0313 10.2975 58.7292 0 46.0209 0Z" fill="#333333"/>
<path d="M227 25.3564C227 25.9262 226.964 26.5197 226.893 27.137H213.105C213.2 28.3716 213.592 29.3213 214.28 29.9861C214.993 30.6271 215.86 30.9476 216.881 30.9476C218.402 30.9476 219.459 30.3066 220.052 29.0245H226.537C226.204 30.3303 225.599 31.5055 224.72 32.5502C223.865 33.5948 222.784 34.4139 221.477 35.0075C220.171 35.601 218.71 35.8978 217.095 35.8978C215.147 35.8978 213.413 35.4823 211.893 34.6514C210.373 33.8204 209.185 32.6333 208.33 31.0901C207.475 29.5468 207.048 27.7425 207.048 25.6769C207.048 23.6114 207.463 21.807 208.295 20.2637C209.15 18.7205 210.337 17.5334 211.858 16.7025C213.378 15.8715 215.124 15.456 217.095 15.456C219.019 15.456 220.729 15.8596 222.226 16.6668C223.722 17.4741 224.886 18.6255 225.717 20.1213C226.572 21.617 227 23.3621 227 25.3564ZM220.765 23.7538C220.765 22.7092 220.409 21.8782 219.696 21.2609C218.983 20.6436 218.093 20.335 217.024 20.335C216.002 20.335 215.136 20.6317 214.423 21.2253C213.734 21.8188 213.307 22.6617 213.14 23.7538H220.765Z" fill="#333333"/>
<path d="M190.17 18.5543C190.74 17.6284 191.559 16.8805 192.628 16.3107C193.697 15.7409 194.92 15.456 196.298 15.456C197.937 15.456 199.422 15.8715 200.752 16.7025C202.082 17.5334 203.127 18.7205 203.887 20.2637C204.671 21.807 205.063 23.5995 205.063 25.6413C205.063 27.6831 204.671 29.4875 203.887 31.0545C203.127 32.5977 202.082 33.7966 200.752 34.6514C199.422 35.4823 197.937 35.8978 196.298 35.8978C194.897 35.8978 193.673 35.6248 192.628 35.0787C191.583 34.5089 190.764 33.761 190.17 32.8351V35.6129H184.077V9.25935H190.17V18.5543ZM198.863 25.6413C198.863 24.1218 198.436 22.9347 197.581 22.08C196.749 21.2015 195.716 20.7623 194.481 20.7623C193.27 20.7623 192.236 21.2015 191.381 22.08C190.55 22.9585 190.134 24.1574 190.134 25.6769C190.134 27.1964 190.55 28.3954 191.381 29.2738C192.236 30.1523 193.27 30.5915 194.481 30.5915C195.692 30.5915 196.726 30.1523 197.581 29.2738C198.436 28.3716 198.863 27.1608 198.863 25.6413Z" fill="#333333"/>
<path d="M176.634 13.6754C175.565 13.6754 174.686 13.3667 173.997 12.7494C173.332 12.1084 172.999 11.3249 172.999 10.399C172.999 9.44929 173.332 8.66581 173.997 8.04851C174.686 7.40748 175.565 7.08697 176.634 7.08697C177.679 7.08697 178.534 7.40748 179.199 8.04851C179.888 8.66581 180.232 9.44929 180.232 10.399C180.232 11.3249 179.888 12.1084 179.199 12.7494C178.534 13.3667 177.679 13.6754 176.634 13.6754ZM179.662 15.7409V35.6129H173.569V15.7409H179.662Z" fill="#333333"/>
<path d="M164.422 19.0529C165.135 17.9608 166.026 17.1061 167.094 16.4888C168.163 15.8477 169.351 15.5272 170.657 15.5272V21.9732H168.983C167.463 21.9732 166.322 22.3055 165.562 22.9703C164.802 23.6114 164.422 24.751 164.422 26.3892V35.6129H158.33V15.7409H164.422V19.0529Z" fill="#333333"/>
<path d="M135.546 25.6769C135.546 23.6114 135.962 21.807 136.793 20.2637C137.648 18.7205 138.824 17.5334 140.32 16.7025C141.841 15.8715 143.574 15.456 145.522 15.456C148.016 15.456 150.095 16.1089 151.757 17.4147C153.444 18.7205 154.548 20.5605 155.071 22.9347H148.586C148.04 21.4152 146.983 20.6555 145.415 20.6555C144.299 20.6555 143.408 21.0947 142.743 21.9732C142.078 22.8279 141.745 24.0625 141.745 25.6769C141.745 27.2914 142.078 28.5378 142.743 29.4163C143.408 30.271 144.299 30.6983 145.415 30.6983C146.983 30.6983 148.04 29.9386 148.586 28.4191H155.071C154.548 30.7458 153.444 32.5739 151.757 33.9035C150.071 35.233 147.992 35.8978 145.522 35.8978C143.574 35.8978 141.841 35.4823 140.32 34.6514C138.824 33.8204 137.648 32.6333 136.793 31.0901C135.962 29.5468 135.546 27.7425 135.546 25.6769Z" fill="#333333"/>
<path d="M124.978 35.8978C123.244 35.8978 121.7 35.601 120.346 35.0075C118.992 34.4139 117.923 33.6067 117.139 32.5858C116.356 31.5412 115.916 30.3778 115.821 29.0957H121.842C121.914 29.7843 122.234 30.3422 122.804 30.7695C123.375 31.1969 124.075 31.4106 124.907 31.4106C125.667 31.4106 126.249 31.2681 126.652 30.9832C127.08 30.6746 127.294 30.2828 127.294 29.808C127.294 29.2382 126.997 28.8227 126.403 28.5615C125.809 28.2766 124.847 27.968 123.517 27.6356C122.092 27.3032 120.904 26.959 119.954 26.6028C119.004 26.223 118.185 25.6413 117.496 24.8578C116.807 24.0506 116.462 22.9703 116.462 21.617C116.462 20.4774 116.771 19.4446 117.389 18.5187C118.03 17.569 118.957 16.8212 120.168 16.2751C121.403 15.729 122.864 15.456 124.55 15.456C127.044 15.456 129.004 16.0733 130.429 17.3079C131.878 18.5425 132.709 20.1806 132.923 22.2225H127.294C127.199 21.5339 126.89 20.9879 126.367 20.5843C125.869 20.1806 125.203 19.9788 124.372 19.9788C123.66 19.9788 123.113 20.1213 122.733 20.4062C122.353 20.6674 122.163 21.0354 122.163 21.5102C122.163 22.08 122.46 22.5074 123.054 22.7923C123.671 23.0772 124.622 23.3621 125.904 23.647C127.377 24.0268 128.576 24.4067 129.503 24.7866C130.429 25.1427 131.237 25.7363 131.926 26.5672C132.638 27.3745 133.006 28.4666 133.03 29.8436C133.03 31.007 132.697 32.0516 132.032 32.9775C131.391 33.8797 130.453 34.592 129.218 35.1143C128.006 35.6366 126.593 35.8978 124.978 35.8978Z" fill="#333333"/>
<path d="M104.996 15.5272C107.324 15.5272 109.177 16.287 110.554 17.8065C111.956 19.3022 112.656 21.3677 112.656 24.0031V35.6129H106.599V24.8222C106.599 23.4926 106.255 22.4599 105.566 21.7239C104.877 20.9879 103.951 20.6199 102.787 20.6199C101.623 20.6199 100.697 20.9879 100.008 21.7239C99.3192 22.4599 98.9747 23.4926 98.9747 24.8222V35.6129H92.8822V15.7409H98.9747V18.3763C99.5923 17.4978 100.424 16.8093 101.469 16.3107C102.514 15.7884 103.69 15.5272 104.996 15.5272Z" fill="#333333"/>
<path d="M88.467 10.6126V35.6129H82.3744V10.6126H88.467Z" fill="#333333"/>
</svg>
