<svg width="16" height="16" viewBox="0 0 16 16" fill="none" xmlns="http://www.w3.org/2000/svg">
<path d="M1 0H15C15.5531 0 16 0.510714 16 1.14286V2.28571C16 2.91786 15.5531 3.42857 15 3.42857H1C0.446875 3.42857 0 2.91786 0 2.28571V1.14286C0 0.510714 0.446875 0 1 0ZM1 4.57143H15V13.7143C15 14.975 14.1031 16 13 16H3C1.89688 16 1 14.975 1 13.7143V4.57143ZM5 7.42857C5 7.74286 5.225 8 5.5 8H10.5C10.775 8 11 7.74286 11 7.42857C11 7.11429 10.775 6.85714 10.5 6.85714H5.5C5.225 6.85714 5 7.11429 5 7.42857Z" fill="#C5CCDB"/>
</svg>
