<svg width="19" height="16" viewBox="0 0 19 16" fill="none" xmlns="http://www.w3.org/2000/svg">
<path d="M18.5 13.7143C18.5 14.975 17.491 16 16.25 16H2.75C1.50898 16 0.5 14.975 0.5 13.7143V2.28571C0.5 1.025 1.50898 0 2.75 0H7.25C7.95664 0 8.62461 0.339286 9.05 0.914286L9.725 1.82857C9.93594 2.11786 10.2699 2.28571 10.625 2.28571H16.25C17.491 2.28571 18.5 3.31071 18.5 4.57143V13.7143ZM8.65625 12.2857C8.65625 12.7607 9.03242 13.1429 9.5 13.1429C9.96758 13.1429 10.3438 12.7607 10.3438 12.2857V10H12.5938C13.0613 10 13.4375 9.61786 13.4375 9.14286C13.4375 8.66786 13.0613 8.28571 12.5938 8.28571H10.3438V6C10.3438 5.525 9.96758 5.14286 9.5 5.14286C9.03242 5.14286 8.65625 5.525 8.65625 6V8.28571H6.40625C5.93867 8.28571 5.5625 8.66786 5.5625 9.14286C5.5625 9.61786 5.93867 10 6.40625 10H8.65625V12.2857Z" fill="white"/>
</svg>
