<svg width="16" height="15" viewBox="0 0 16 15" fill="none" xmlns="http://www.w3.org/2000/svg">
<path d="M8.70582 2.85355L8.85227 3H9.05937H14C14.827 3 15.5 3.67302 15.5 4.5V12.5C15.5 13.327 14.827 14 14 14H2C1.17302 14 0.5 13.327 0.5 12.5V2.5C0.5 1.67302 1.17302 1 2 1H6.12813C6.59207 1 7.03686 1.18459 7.3652 1.51293L8.70582 2.85355ZM7.01332 1.86559L7.01293 1.8652C6.77725 1.62952 6.4589 1.5 6.12813 1.5H2C1.44886 1.5 1 1.94886 1 2.5V12.5C1 13.0511 1.44886 13.5 2 13.5H14C14.5511 13.5 15 13.0511 15 12.5V4.5C15 3.94886 14.5511 3.5 14 3.5H8.95625C8.75688 3.5 8.56556 3.42092 8.42549 3.28089C8.42547 3.28086 8.42545 3.28084 8.42543 3.28082L7.01332 1.86559Z" fill="white" stroke="white"/>
</svg>
