<svg width="93" height="62" viewBox="0 0 93 62" fill="none" xmlns="http://www.w3.org/2000/svg">
<path d="M0 31C0 13.8792 13.8792 0 31 0C48.1208 0 62 13.8792 62 31C62 48.1208 48.1208 62 31 62C13.8792 62 0 48.1208 0 31Z" fill="#333333"/>
<path fill-rule="evenodd" clip-rule="evenodd" d="M32.86 31C32.86 47.0936 45.9064 60.14 62 60.14C78.0936 60.14 91.14 47.0936 91.14 31C91.14 14.9064 78.0936 1.86 62 1.86C45.9064 1.86 32.86 14.9064 32.86 31ZM62 0C44.8792 0 31 13.8792 31 31C31 48.1208 44.8792 62 62 62C79.1208 62 93 48.1208 93 31C93 13.8792 79.1208 0 62 0Z" fill="#333333"/>
</svg>
