<svg width="16" height="17" viewBox="0 0 16 17" fill="none" xmlns="http://www.w3.org/2000/svg">
<path d="M2.28571 2.21429C1.97143 2.21429 1.71429 2.47143 1.71429 2.78571V14.2143C1.71429 14.5286 1.97143 14.7857 2.28571 14.7857H10.2857V11.9286C10.2857 11.2964 10.7964 10.7857 11.4286 10.7857H14.2857V2.78571C14.2857 2.47143 14.0286 2.21429 13.7143 2.21429H2.28571ZM10.2857 16.5H2.28571C1.025 16.5 0 15.475 0 14.2143V2.78571C0 1.525 1.025 0.5 2.28571 0.5H13.7143C14.975 0.5 16 1.525 16 2.78571V10.7857V10.9821C16 11.5893 15.7607 12.1714 15.3321 12.6L12.1 15.8321C11.6714 16.2607 11.0893 16.5 10.4821 16.5H10.2857Z" fill="white"/>
</svg>
