<svg width="16" height="17" viewBox="0 0 16 17" fill="none" xmlns="http://www.w3.org/2000/svg">
<path d="M1 0.5H15C15.5531 0.5 16 1.01071 16 1.64286V2.78571C16 3.41786 15.5531 3.92857 15 3.92857H1C0.446875 3.92857 0 3.41786 0 2.78571V1.64286C0 1.01071 0.446875 0.5 1 0.5ZM1 5.07143H15V14.2143C15 15.475 14.1031 16.5 13 16.5H3C1.89688 16.5 1 15.475 1 14.2143V5.07143ZM5 7.92857C5 8.24286 5.225 8.5 5.5 8.5H10.5C10.775 8.5 11 8.24286 11 7.92857C11 7.61429 10.775 7.35714 10.5 7.35714H5.5C5.225 7.35714 5 7.61429 5 7.92857Z" fill="#333333"/>
</svg>
