<svg width="32" height="29" viewBox="0 0 32 29" fill="none" xmlns="http://www.w3.org/2000/svg">
<path d="M0 2.41667C0 1.07995 1.02143 0 2.28571 0H29.7143C30.9786 0 32 1.07995 32 2.41667C32 3.75339 30.9786 4.83333 29.7143 4.83333H2.28571C1.02143 4.83333 0 3.75339 0 2.41667ZM0 14.5C0 13.1633 1.02143 12.0833 2.28571 12.0833H29.7143C30.9786 12.0833 32 13.1633 32 14.5C32 15.8367 30.9786 16.9167 29.7143 16.9167H2.28571C1.02143 16.9167 0 15.8367 0 14.5ZM32 26.5833C32 27.9201 30.9786 29 29.7143 29H2.28571C1.02143 29 0 27.9201 0 26.5833C0 25.2466 1.02143 24.1667 2.28571 24.1667H29.7143C30.9786 24.1667 32 25.2466 32 26.5833Z" fill="#333333"/>
</svg>
